<?xml version="1.0" standalone="no"?>
<!DOCTYPE svg PUBLIC "-//W3C//DTD SVG 20010904//EN"
 "http://www.w3.org/TR/2001/REC-SVG-20010904/DTD/svg10.dtd">
<svg version="1.0" xmlns="http://www.w3.org/2000/svg"
 width="700.000000pt" height="700.000000pt" viewBox="0 0 700.000000 700.000000"
 preserveAspectRatio="xMidYMid meet">
<metadata>
Created by potrace 1.14, written by Peter Selinger 2001-2017
</metadata>
<g transform="translate(0.000000,700.000000) scale(0.100000,-0.100000)"
fill="#000000" stroke="none">
<path d="M3177 6415 c-1 -2 -76 -5 -167 -9 -188 -7 -260 -13 -375 -33 -63 -11
-204 -56 -280 -90 -166 -75 -277 -155 -440 -318 -214 -214 -359 -440 -456
-714 -27 -77 -79 -277 -93 -356 -2 -16 -14 -77 -24 -135 -11 -58 -23 -125 -27
-150 -3 -25 -8 -52 -10 -60 -2 -8 -7 -35 -10 -60 -3 -25 -8 -56 -10 -70 -2
-14 -7 -50 -10 -80 -3 -30 -8 -62 -10 -70 -2 -8 -6 -42 -10 -75 -3 -33 -7 -80
-10 -105 -3 -25 -7 -83 -10 -130 -21 -325 -121 -649 -288 -933 -124 -210 -346
-463 -517 -589 -143 -106 -250 -229 -329 -379 -114 -220 -128 -389 -46 -555
52 -107 156 -200 275 -245 57 -22 68 -25 135 -37 34 -7 1491 -8 1690 -2 249 7
497 -91 680 -269 166 -161 346 -246 544 -254 228 -10 418 75 651 292 112 104
232 169 355 192 39 8 241 12 574 13 495 1 514 2 521 20 6 18 23 19 456 19 324
0 466 3 510 12 267 56 447 336 387 600 -19 84 -50 146 -123 250 -122 174 -212
272 -385 420 -177 151 -279 265 -388 432 -115 176 -224 443 -251 613 -3 19 -8
46 -11 60 -3 14 -8 41 -10 60 -7 46 -14 90 -19 116 -2 12 -7 45 -11 75 -3 30
-8 65 -10 79 -10 56 -20 155 -30 295 -3 44 -7 94 -10 110 -2 17 -7 57 -10 90
-4 33 -8 71 -11 85 -2 14 -9 54 -14 90 -6 36 -18 94 -26 130 -9 36 -17 72 -19
80 -20 94 -88 320 -122 405 -8 22 -19 49 -23 60 -4 11 -17 41 -29 67 -12 26
-21 50 -21 53 0 21 -130 261 -182 337 -105 154 -278 317 -453 429 -63 40 -212
109 -303 140 -202 70 -392 89 -905 93 -158 1 -288 2 -290 1z m759 -699 c246
-26 467 -151 618 -350 51 -66 134 -219 151 -276 4 -14 11 -29 15 -35 27 -33
133 -391 156 -525 4 -25 8 -47 9 -50 1 -3 5 -32 9 -65 4 -32 9 -66 11 -75 2
-8 6 -64 9 -125 13 -211 16 -260 21 -300 2 -22 7 -67 10 -100 4 -33 10 -78 15
-100 5 -22 11 -60 15 -85 3 -25 8 -52 10 -60 2 -8 7 -31 10 -50 11 -66 76
-305 116 -425 95 -286 305 -632 535 -884 42 -46 83 -99 90 -118 19 -44 5 -99
-34 -137 -61 -58 -6 -56 -1451 -57 -729 0 -1678 -2 -2109 -3 -430 -1 -812 1
-850 6 -134 17 -188 61 -180 148 5 48 36 99 108 180 399 445 630 987 665 1565
8 129 16 235 20 270 2 17 7 57 10 90 3 33 10 85 15 115 5 30 11 71 14 90 5 33
43 236 52 273 24 105 56 223 88 329 70 236 185 410 366 552 156 124 304 185
485 203 33 3 61 6 62 7 6 5 891 -3 939 -8z"/>
</g>
</svg>
