<svg fill="none" height="236" viewBox="0 0 261 236" width="261" xmlns="http://www.w3.org/2000/svg"><g clip-rule="evenodd" fill-rule="evenodd"><g fill="#000"><path d="m169.058 196.506c-.218.022-.655.134-.807.706-.066.252-.04 1.485-.04 1.763 0 .823.009 1.644.021 2.467.028 1.804.02 3.609-.019 5.413-.008.38-.083 1.154-.011 1.747.051.417.179.768.353 1.002.181.244.473.439.848.537.458.119 1.087.086 1.401.053 1.648-.171 2.46-1.239 2.838-2.584.296-1.056.293-2.297.339-3.18.073-1.383.247-3.62-.295-5.274-.449-1.374-1.341-2.392-2.935-2.587-.468-.058-1.225-.109-1.693-.063zm.955 1.803c.19.013.372.032.518.05 1.064.131 1.43 1.045 1.607 2.048.236 1.344.093 2.901.039 3.928-.041.773-.015 1.863-.275 2.788-.179.635-.507 1.196-1.285 1.277-.116.012-.418.005-.608-.002-.016-.124-.033-.288-.034-.407-.001-.422.039-.851.045-1.097.039-1.827.047-3.653.019-5.48-.013-.813-.022-1.626-.022-2.439z"/><path d="m181.529 197.407c-1.082-1.539-3.517-1.344-4.319.316-.132.274-.246.707-.323 1.276-.144 1.06-.197 2.696-.289 4.6-.035.719-.103 2.663.12 4.224.11.772.3 1.459.566 1.922.526.919 1.284 1.243 2.006 1.219.993-.033 2.025-.826 2.368-2.024.56-1.958.706-5.111.605-7.123-.042-.841-.056-2.136-.243-3.103-.106-.544-.276-1.001-.491-1.307zm-1.478 1.037c.147.209.2.574.254.976.112.834.12 1.816.153 2.487.093 1.846-.023 4.741-.537 6.538-.073.254-.219.468-.405.602-.109.079-.232.138-.355.107-.123-.032-.218-.145-.309-.304-.245-.429-.349-1.145-.416-1.894-.115-1.298-.061-2.7-.034-3.27.077-1.587.124-2.982.224-3.998.053-.543.101-.954.211-1.181.225-.466.91-.495 1.214-.063z"/><path d="m185.319 197.439c.006.109.045 2.102.009 2.615-.139 1.94-.116 3.776-.076 5.718.013.637-.07 1.38.024 2.056.084.611.298 1.174.72 1.634.482.525 1.215.799 1.948.788.741-.011 1.46-.315 1.908-.848.347-.411.549-.945.637-1.541.101-.692.046-1.478-.002-2.159-.081-1.163-.128-2.356-.149-3.522-.03-1.611.018-3.272.021-4.931 0-.498-.404-.902-.903-.903-.498-.001-.904.403-.904.901-.002 1.67-.05 3.343-.021 4.966.022 1.196.07 2.422.154 3.615.034.476.08 1.014.043 1.516-.024.342-.068.671-.259.898-.127.151-.344.201-.553.204-.217.004-.445-.048-.588-.203-.227-.247-.267-.579-.287-.916-.031-.537.027-1.099.018-1.592-.039-1.886-.064-3.669.071-5.552.04-.559 0-2.725-.007-2.844-.027-.497-.454-.878-.952-.851-.497.028-.879.454-.852.951z"/><path d="m197.329 205.28c.134.811.128 1.876-.164 2.667-.137.373-.322.705-.712.708-.18.002-.32-.02-.422-.091-.157-.112-.201-.308-.24-.496-.084-.403-.07-.83-.081-1.128-.077-2.243-.165-4.443-.092-6.735.011-.37-.01-.873.063-1.345.039-.247.067-.505.262-.633.489-.321 1.127-.046 1.248.47.045.191.049.64.039.834-.027.497.355.922.853.949s.924-.355.951-.852c.016-.312-.011-1.035-.083-1.342-.39-1.663-2.424-2.599-3.999-1.568-.51.334-.822.863-.979 1.483-.164.651-.144 1.413-.161 1.947-.075 2.333.014 4.572.093 6.854.013.38.01.922.117 1.435.133.637.431 1.221.965 1.599.361.255.838.43 1.484.423 1.182-.011 1.973-.759 2.39-1.888.476-1.292.414-3.124.11-4.237-.103-.377-.369-.663-.808-.796-.314-.094-.825-.063-1.156-.054-.499.014-.892.43-.877.928.014.497.43.89.929.875z"/><path d="m205.797 203.5-1.614.075c-.025-1.162-.052-2.314-.074-3.432-.014-.726-.021-2.108-.083-2.831-.042-.485-.461-.849-.948-.824-.486.026-.865.432-.856.918l.236 12.168c.01.495.416.89.912.885.495-.005.895-.407.895-.902 0-1.353-.019-2.756-.046-4.166.199 0 .397-.004.596-.014.342-.017.68-.027 1.016-.046.014.663.027 1.326.038 1.989l.006.414.001.104.006.465.001.138.003.424.001.135.002.557c0 .498.404.902.903.902s.904-.404.904-.902v-.001l-.002-.522v-.034-.027l-.001-.178-.002-.283-.001-.057v-.066l-.003-.201-.002-.197-.001-.097-.001-.118-.003-.201-.002-.105-.001-.059-.004-.248-.092-9.924c-.005-.496-.411-.896-.908-.893-.497.002-.899.405-.899.902 0 .315-.026.818-.019 1.133.021.944.021 1.886.021 2.83 0 .767.009 1.529.021 2.289z"/><path d="m217.874 205.531.139-.005.567-.01c.495-.008.891-.414.887-.909s-.407-.895-.903-.895l-.016.001h-.003c-.165 0-.36.004-.574.01l-.054.001-.002-.138c0-.046 0-.091 0-.137.001-.073.002-.146.004-.22.002-.126.005-.253.005-.38.001-.081.001-.163-.001-.244-.001-.081-.004-.163-.009-.244-.032-.481-.437-.851-.919-.842-.483.009-.873.396-.886.877l-.037 1.36-.522.01c-.487.008-.88.402-.887.888-.007.487.373.891.86.915.145.006.314.009.499.009l-.036 1.312c-.014.492.371.904.864.926.493.021.911-.357.94-.849.029-.481.06-.959.084-1.436z"/><path d="m227.266 208.456c.007-.368.018-.846.022-.971.067-1.827.179-3.605.13-5.433-.029-1.059-.011-2.12.05-3.179.02-.349.015-.837.038-1.186.034-.497-.343-.927-.841-.96-.497-.033-.928.343-.961.84-.024.354-.019.849-.04 1.203-.064 1.109-.083 2.221-.053 3.331.049 1.789-.062 3.53-.128 5.317-.01.276-.108 1.328.007 1.866.08.377.264.631.441.771.195.155.455.254.758.27.261.013.588-.063.775-.076.569-.04 1.627.023 2.28.001.498-.016.889-.434.873-.931-.017-.498-.435-.888-.934-.872-.671.023-1.759-.039-2.344.002-.019.001-.044.004-.073.007z"/><path d="m237.785 200.419c-.032-.577-.138-1.458-.495-2.179-.449-.906-1.233-1.605-2.611-1.514-.48.031-1.261.356-1.746 1.091-.366.556-.445 1.62-.482 2.439-.107 2.415.137 4.702.194 7.118.037 1.545.764 3.147 2.554 3.081 1.899-.072 2.266-1.511 2.516-2.769.376-1.895.189-5.185.07-7.267zm-1.803.102c.111 1.952.313 5.038-.04 6.815-.047.239-.091.496-.163.74-.086.285-.224.56-.648.576-.282.01-.429-.176-.517-.394-.114-.281-.155-.612-.163-.926-.056-2.375-.3-4.623-.195-6.996.014-.311.021-.67.062-1.004.024-.202.04-.396.124-.523.107-.162.249-.276.355-.283.588-.039.843.366.981.778.146.431.185.893.204 1.217z"/><path d="m242.8 204.913c-.229-1.709-.483-3.427-.803-5.104-.123-.644-.301-1.671-.401-2.32-.076-.492-.537-.83-1.03-.754s-.832.537-.756 1.029c.103.666.286 1.721.412 2.383.44 2.305.753 4.688 1.048 7.017.027.218.42 2.028.621 2.425.187.368.466.485.61.526.169.048.828.151 1.104-.562.059-.152.217-.949.227-1.001.096-.512.207-1.009.327-1.516.386-1.64.781-3.295 1.058-4.958.254-1.518.416-2.757.585-4.357.053-.495-.307-.939-.803-.992-.496-.052-.941.308-.994.803-.165 1.56-.323 2.768-.57 4.25-.175 1.047-.398 2.092-.635 3.131z"/><path d="m250.894 205.199c.022-.013.044-.026.066-.041.202-.008.829-.037 1.119-.067.496-.053.856-.498.803-.993s-.498-.854-.994-.801c-.287.03-.685.036-1.031.065-.027-1.714-.03-3.429.005-5.138 0-.018.002-.038.004-.057.082-.01.202-.021.286-.021.161-.001.329.004.498.004.208 0 .841-.093 1.075-.031.482.129.977-.157 1.106-.638.128-.481-.158-.976-.64-1.104-.336-.09-1.243-.031-1.541-.031-.418 0-.829-.016-1.167.048-.401.076-.731.246-.982.524-.243.269-.433.66-.446 1.269-.057 2.859-.011 5.735.074 8.593.007.251.013 1.838.12 2.538.079.527.34.821.465.91.122.088.371.2.736.223.541.034 1.675-.087 2.384-.125.497-.027.88-.452.853-.95-.027-.497-.453-.879-.95-.852-.437.024-1.206.067-1.713.096-.032-.655-.084-1.724-.089-1.894-.015-.508-.029-1.018-.041-1.527z"/><path d="m137.968 209.313v.006c.012.497.425.89.922.88.498-.01.894-.421.885-.918l-.009-.472c-.008-.713.003-1.296-.01-2.046-.019-1.145-.05-2.289-.075-3.432l2.985 6.349c.211.448.743.643 1.193.438.451-.206.651-.735.451-1.187-.754-1.695-1.428-3.253-2.261-5.086-.15-.33-.463-1.171-.77-1.701-.062-.107-.127-.204-.195-.29.083-.153.156-.295.202-.389l-.001.001 2.206-3.867c.245-.429.099-.974-.327-1.224-.425-.25-.973-.112-1.23.309-.141.232-.296.454-.448.679-.689 1.017-1.161 2.122-1.761 3.187-.008.015-.022.04-.039.075l-.044.077c-.001-.165-.001-.33-.001-.496 0-.373-.045-1.451-.07-2.274l-.015-.851c-.009-.492-.411-.886-.904-.885-.493 0-.894.395-.903.887-.003.183.004.51.016.893l.195 10.861c.001.152.004.31.008.476z"/><path d="m148.146 205.158c.043 0 .08 0 .099-.001.313-.013.627-.001.941-.003.499-.001.902-.407.9-.905-.001-.498-.408-.9-.906-.899-.337.002-.675-.01-1.012.005-.008 0-.018 0-.03 0 .001-.471.003-.943.003-1.417 0-1.072.033-2.15-.014-3.221l-.02-.449c.728.01 1.854.027 2.009.036.497.031.926-.347.957-.844s-.348-.925-.846-.956c-.23-.014-1.956-.1-2.715-.057-.524.029-.84.236-.923.319-.106.106-.271.346-.308.724-.036.379.035 1.171.041 1.307.046 1.044.012 2.095.012 3.141 0 1.88-.027 3.729.09 5.608.017.256-.047.944.001 1.435.042.441.193.785.355.97.13.149.343.295.65.341.252.037.726-.041.859-.055.689-.071 1.378-.071 2.067-.108.497-.026.88-.451.854-.948s-.452-.88-.95-.853c-.683.036-1.366.04-2.049.104v-.084c.006-.376.028-.74.017-.915-.048-.762-.071-1.518-.082-2.275z"/><path d="m158.414 205.451.026 1.841c.007.496.413.893.909.89.497-.004.898-.406.898-.902 0-.619.002-1.238-.003-1.857l.183-.005c.002 0 .51-.005.51-.005.497-.006.896-.411.893-.907-.003-.497-.407-.897-.903-.897h-.011l-.256.001-.255.004-.196.003-.002-.066c-.002-.058-.004-.116-.006-.174-.008-.276-.014-.551-.02-.827l-.01-.699c-.002-.137-.035-.272-.097-.394-.137-.27-.329-.371-.452-.424-.215-.092-.426-.095-.632-.029-.101.032-.557.175-.623.766-.009.077.002.592.005.708l.002.106.015 1.053-.464.005c-.497.006-.896.411-.893.907.002.496.406.897.903.897.04 0 .08 0 .121.001.041 0 .083.001.124.001zm.891-.004v-.001zm1.114-.035.001.002.003-.019-.009-.809zm-.017-1.798h.002z"/><path d="m116.493 198.882c-.123-.512-.306-1.142-.62-1.631-.439-.682-1.091-1.139-2.072-1.044-.851.084-1.512.658-1.922 1.491-.482.976-.601 2.305-.468 3.055.297 1.66 1.223 2.317 2.58 3.127.352.21.606.601.795 1.05.337.802.445 1.801.286 2.635-.124.654-.379 1.249-.999 1.262-.261.006-.457-.185-.615-.421-.385-.578-.515-1.472-.291-2.291.132-.48-.152-.976-.633-1.108-.48-.131-.978.152-1.109.632-.37 1.349-.106 2.816.53 3.768.524.784 1.287 1.242 2.156 1.224 1.489-.031 2.438-1.161 2.736-2.729.222-1.161.074-2.554-.396-3.671-.35-.832-.88-1.509-1.533-1.899-.858-.513-1.54-.845-1.728-1.895-.085-.478.003-1.321.309-1.942.116-.235.238-.469.478-.492.259-.025.369.187.465.384.143.296.226.633.294.915.116.484.604.783 1.089.667s.784-.603.668-1.087z"/><path d="m123.357 205.449c-.387-1.818-.798-3.619-1.08-5.461-.112-.732-.278-1.463-.462-2.181-.036-.14-.161-.649-.323-.868-.199-.269-.458-.392-.71-.421-.342-.04-.64.074-.873.349-.096.113-.188.277-.242.472-.049.173-.068.388-.077.456-.073.563-.082 1.132-.108 1.698-.105 2.311-.178 4.603-.212 6.918-.01.658-.136 2.972-.167 3.188-.072.492.27.95.763 1.022.494.072.953-.27 1.025-.762.033-.232.175-2.715.185-3.422.014-.916.034-1.828.059-2.74.254 1.205.523 2.407.764 3.624.057.29.243 1.537.496 2.111.175.397.437.618.64.71.191.087.386.105.584.061.173-.039.411-.137.595-.422.059-.091.141-.27.206-.519.129-.497.277-1.495.381-1.971.194-.897.382-1.727.558-2.542.129 1.659.27 3.314.376 5.035.031.497.46.876.958.845.497-.031.876-.459.846-.956-.196-3.162-.506-6.096-.655-9.248-.038-.802-.056-1.605-.106-2.407-.002-.045-.015-.44-.055-.658-.034-.185-.097-.325-.146-.406-.22-.361-.532-.452-.795-.452-.237 0-.496.077-.712.332-.067.079-.152.211-.208.392-.052.171-.09.481-.099.531-.097.566-.342 1.893-.419 2.461-.257 1.91-.601 3.488-.987 5.231z"/><path d="m134.901 197.612c-.374-.713-.869-1.08-1.367-1.255-1.139-.399-2.417.315-2.869.852-.297.354-.513.904-.623 1.558-.193 1.141-.099 2.653-.111 3.416-.013.806-.013 3.375.22 5.136.126.951.368 1.697.625 2.018.467.584 1.23.89 2.007.861.756-.029 1.506-.374 1.968-1.004.335-.457.54-1.113.63-1.834.11-.878.065-1.856.045-2.517-.039-1.357-.047-3.838-.178-5.454-.069-.856-.206-1.508-.347-1.777zm-1.61.819c.01.055.117.625.156 1.104.129 1.587.135 4.026.173 5.36.017.588.066 1.46-.031 2.241-.048.385-.116.748-.295.991-.133.182-.361.26-.58.268-.192.007-.395-.032-.515-.171-.013-.03-.071-.178-.1-.285-.063-.239-.114-.532-.157-.856-.221-1.67-.216-4.108-.205-4.872.01-.612-.062-1.738.032-2.72.044-.46.085-.889.28-1.122.142-.168.529-.435.886-.31.139.049.251.177.356.372z"/><path d="m75.4128 233.839c-12.0704 7.297-24.5176-5.309-19.7602-16.648 1.006-2.398 62.3304-85.799 75.2514-105.413 5.67-8.607 5.112-38.4717 5.332-47.0807.332-13.0274.328-28.0082 6.965-39.6586 17.269-30.31388 50.46-27.67155 63.851-20.01054 16.214 9.27634 25.298 38.05564 13.744 61.34654-8.164 16.4576-22.879 22.0646-38.246 29.7364-8.237 4.1119-32.452 14.7929-38.536 23.3219-12.285 17.222-57.0375 107.415-68.6012 114.406zm50.5282-104.251c-.394-.216-.887-.11-1.157.248 0 0-60.4571 80.207-65.0218 88.748-2.4201 4.529-.5234 8.833 2.8515 11.359 3.3534 2.51 8.1462 3.19 11.4819.658 1.0976-.833 4.1098-5.277 8.1663-11.896 15.8614-25.878 48.6471-85.361 48.6471-85.361.116-.21.143-.457.077-.687-.067-.23-.223-.424-.433-.539zm-.184 1.957 3.133 1.719c-3.928 7.115-33.3957 60.396-48.1691 84.499-3.8708 6.316-6.6713 10.607-7.7187 11.402-2.7057 2.053-6.5847 1.37-9.3048-.666-2.6984-2.019-4.2761-5.445-2.3412-9.065 4.3169-8.079 58.7638-80.407 64.4008-87.889zm-56.756 85.209c2.8852 0 5.2274 2.284 5.2274 5.097s-2.3422 5.097-5.2274 5.097-5.2274-2.284-5.2274-5.097 2.3422-5.097 5.2274-5.097zm0 2.075c1.7398 0 3.1524 1.354 3.1524 3.022s-1.4126 3.022-3.1524 3.022-3.1524-1.354-3.1524-3.022 1.4126-3.022 3.1524-3.022zm70.351-101.365s-4.54-2.276-4.551-2.276c-.326.018-7.397 11.848-7.397 11.848l4.39 2.09zm1.468-3.432c1.198 1.264 13.803-8.324 17.859-11.554 12.908-10.2828 25.134-24.3416 35.104-37.3909 9.097-11.905 21.831-36.1879 13.857-53.4213-.241-.519-66.888 102.2942-66.82 102.3662zm-3.824-2.882c-1.644-.578 2.002-15.9757 3.308-20.9889 4.157-15.9566 12.048-32.8265 19.932-47.229 7.192-13.1394 24.231-34.63122 43.241-34.36712.573.00794-66.388 102.61802-66.481 102.58502zm57.937-39.1836c-4.436 6.0103-21.884 23.6785-21.654 23.599 1.975-.6845 17.121-8.4875 21.276-10.4381 11.652-5.4708 17.385-12.0554 23.016-23.3946 4.301-8.6633 4.823-17.5896 3.452-27.3034-.746-5.2846-3.298-13.6524-5.293-13.42-1.071.1247-1.053 10.1632-2.009 14.9866-2.594 13.0825-10.932 25.327-18.788 35.9705zm-41.307-27.1043c-3.695 6.491-12.764 29.5928-12.784 29.3511-.178-2.0808.801-19.0698.896-23.6528.267-12.8533 3.959-20.7615 12.043-30.5092 6.177-7.4475 14.132-11.55434 23.577-14.25425 5.139-1.46888 13.833-2.54434 14.432-.63082.321 1.02755-8.871 5.09397-12.895 7.92827-10.915 7.687-18.726 20.2729-25.269 31.7677z"/></g><path d="m1.03022 120.73c40.07158.013 219.41578-2.89 259.34778.078 2.968.221-19.015 28.683-20.66 34.31-1.055 3.609 24.97 36.019 20.837 36.004-40.443-.151-236.4701 1.686-260.264241.078-3.114249-.21 19.805841-28.471 20.235841-34.639.3243-4.652-22.53879-35.832-19.49681-35.831z" fill="#791807"/><path d="m103.927 128.421c-.043-1.871-6.5448-1.636-6.5698 0-.103 6.747-1.1375 45.8-.2899 46.689 1.2464 1.307 11.4467.403 12.9917.272 2.118-.179 2.478-6.02.681-6.115-1.55-.082-6.724.314-6.702-.307.041-1.156.168-28.55-.111-40.539z" fill="#ebebeb"/><path d="m117.022 175.339c-.473-1.084 1.2-12.218 2.992-23.429 1.511-9.456 3.449-22.389 5.491-23.282 1.387-.606 3.566-.518 4.764-.148 2.306.711 3.9 11.286 5.773 23.43 1.738 11.273 3.499 22.538 2.591 23.485-.829.863-4.481.684-5.051.413-3.124-1.487.776-8.587-3.313-9.023-1.533-.163-3.346-.394-4.764.179-2.506 1.013-1.725 5.987-2.487 8.223-.458 1.346-5.588 1.089-5.996.152zm11.064-33.424c-.961-.013-2.662 16.585-2.183 16.598.731.019 3.277.052 4.017-.035.317-.037-.673-16.548-1.834-16.563z" fill="#ebebeb"/><path d="m163.327 140.773c-.595 2.935-5.415 2.203-6.024.731-.516-1.247.218-7.467-2.878-7.48-3.663-.016-2.684 9.212-2.799 16.843-.133 8.793-.961 18.393 2.904 18.831 2.7.305 2.025-6.877 3.773-8.865.751-.854 3.729-.816 4.414.525 1.156 2.266-.524 8.802-1.873 11.055-.699 1.168-3.626 3.961-7.651 3.687-10.04-.686-8.148-13.175-8.212-25.056-.073-13.615.361-23.09 8.995-23.336 7.22-.206 10.275 8.512 9.351 13.065z" fill="#ebebeb"/><path d="m181.863 151.704c-.171 2.6-5.075 1.784-5.368.642-.193-.749-.046-5.91.008-7.701.122-4.015-.132-15.145-.897-16.123-1.032-1.321-4.718-.84-5.386.119-.792 1.136-.916 43.189-.888 46.04.022 2.233 5.973 2.134 6.53.185.705-2.468.208-12.955.637-13.848.389-.809 4.294-.374 5.093-.332 1.748.092.001 12.856 1.081 14.499.673 1.022 5.158 1.519 5.753.078.738-1.786.785-45.412-.304-46.622-1.367-1.517-5.215-.974-5.622 0-1.173 2.805-.4 19.464-.637 23.063z" fill="#ebebeb"/><path d="m195.555 128.642c-.562 1.294-.856 45.197-.113 46.571.937 1.734 11.217.955 13.313.416 1.387-.356 1.777-4.671.719-6.137-1.219-1.692-7.427-.08-7.653-1.184-.268-1.312.019-5.843.033-7.078.019-1.553 4.176.221 5.468-1.247 1.111-1.264 1.321-3.796.719-5.252-.798-1.929-5.521-.653-6.066-1.681-.413-.779-.402-16.542-.061-17.902.108-.431 5.807-.16 6.209-.192 3.028-.242 2.317-6.45.804-6.768-1.788-.375-12.694-1.106-13.372.454z" fill="#ebebeb"/><path d="m234.029 139.16c.325-1.54-.045-5.761-.363-6.543-2.944-7.24-16.93-8.249-17.342 7.28-.36 13.592 11.418 12.879 12.856 21.353.609 3.589-1.085 8.158-2.761 7.992-4.184-.414-2.071-8.011-3.851-9.499-1.099-.919-4.213-1.156-5.294.329-1.013 1.392-1.54 14.067 8.606 16.26 6.622 1.43 10.748-8.035 10.459-13.359-.536-9.874-4.828-12.669-10.538-16.836-4.93-3.599-1.914-11.084-.015-11.31 2.64-.313 1.922 3.904 2.265 5.107.41 1.437 5.444 1.752 5.978-.774z" fill="#ebebeb"/><path d="m26.9846 128.522c-.7658.627-.9047 45.121-.2895 46.165.8762 1.487 6.1818 1.578 6.4803-.374.233-1.523.1329-22.578.6166-22.578.5355.001 7.7687 23.455 8.3677 23.855 1.1496.766 5.599.642 6.5746-.161.981-.807-7.4519-21.703-9.2209-29.09-1.0775-4.498 5.2988-13.374 7.2397-17.153.9751-1.898-4.7961-2.246-5.7386-.77-1.8791 2.941-7.4677 11.872-7.5599 11.918-.144.072.3304-9.298-.2294-11.86-.2122-.972-5.1057-.882-6.2406.048z" fill="#ebebeb"/><path d="m51.8316 129.7c.2616 9.097-.8006 43.565.3212 44.792 1.5451 1.689 9.4936 1.513 13.2872.816 1.2666-.233 1.1586-5.318.4771-6.158-1.2193-1.502-7.7168.906-7.7951-1.082-.03-.759-.0443-5.894.1379-6.84.2689-1.396 3.8982-.724 4.8699-.91 1.9772-.38 1.5612-4.58 1.1175-6.264-.3401-1.291-5.0396.695-5.8347-.685-.752-1.304-.2669-15.641-.0331-17.771.0415-.378 5.3241-.066 6.5931 0 .9262.048 2.0865-3.888 1.0703-6.355-.7558-1.835-14.2975-2.537-14.2113.457z" fill="#ebebeb"/><path d="m84.2597 128.421c-3.8083-.786-10.8264-.971-11.5114 1.413-.7267 2.528-1.3777 41.299-.246 44.791.5315 1.64 4.8247 1.484 5.6787.965 2.0225-1.231.3706-11.507 1.4241-11.38.2056.024 1.0595-.375 1.236.336.6825 2.747 2.2028 9.747 2.3923 10.544.3344 1.407 5.5542 1.12 5.8485.224.6547-1.996-2.6564-13.904-2.1142-14.509 7.9242-8.843 5.0399-30.785-2.708-32.384zm-5.0373 7.182c-.6423.023-.586 19.786.0993 21.167.8838 1.781 6.1861-4.377 5.9462-10.926-.1752-4.779-.8048-10.431-6.0455-10.241z" fill="#ebebeb"/><path d="m17.6833 186.697c.6906.254 13.2518-.195 15.9086-.136 15.7862.354 31.613-.095 47.4118.272 18.7473.435 37.4213-.323 56.1663-.163 34.73.297 69.483.478 104.213.478.997 0 .792-4.024-.205-4.024-34.72 0-69.257.235-103.977-.062-18.727-.159-37.3836.599-56.1134.164-15.7996-.367-31.6273.082-47.4145-.272-2.7052-.061-15.0578-.095-15.5413-.08-1.1033.034-1.3844 3.48-.4485 3.823z" fill="#ebebeb"/></g></svg>